<?xml version="1.0" encoding="UTF-8"?>
<svg xmlns="http://www.w3.org/2000/svg" xmlns:xlink="http://www.w3.org/1999/xlink" viewBox="0 0 45 45" width="45" height="45">
<defs xmlns:ns2="http://www.inkscape.org/namespaces/inkscape" xmlns:xlink="http://www.w3.org/1999/xlink" id="defs3700">
    <linearGradient id="linearGradient3740">
      <stop id="stop3742" style="stop-color:#e6eff7;stop-opacity:1" offset="0" />
      <stop id="stop3744" style="stop-color:#e6eff7;stop-opacity:0" offset="1" />
    </linearGradient>
    <linearGradient x1="1914.4855" y1="1360.0046" x2="2487.5938" y2="1608.9062" id="linearGradient3772" xlink:href="#linearGradient3962" gradientUnits="userSpaceOnUse" gradientTransform="translate(-18.856181,-15.084945)" />
    <linearGradient id="linearGradient3962">
      <stop id="stop3964" style="stop-color:#ffffff;stop-opacity:1" offset="0" />
      <stop id="stop3966" style="stop-color:#ffffff;stop-opacity:0" offset="1" />
    </linearGradient>
    <linearGradient x1="1914.4855" y1="1360.0046" x2="2487.5938" y2="1608.9062" id="linearGradient3838" xlink:href="#linearGradient3740" gradientUnits="userSpaceOnUse" gradientTransform="matrix(0.2561708,0,0,0.2561708,8.3553166,-306.81984)" />
    <radialGradient cx="917.08472" cy="2388.8135" r="851.18646" fx="1087.322" fy="2388.8135" id="radialGradient3714" xlink:href="#linearGradient3708" gradientUnits="userSpaceOnUse" gradientTransform="matrix(1,0,0,0.2258064,0,1849.404)" />
    <linearGradient id="linearGradient3708">
      <stop id="stop3710" style="stop-color:#000000;stop-opacity:1" offset="0" />
      <stop id="stop3712" style="stop-color:#000000;stop-opacity:0" offset="1" />
    </linearGradient>
    <radialGradient cx="1009.6047" cy="1258.1569" r="97.07737" fx="1009.6047" fy="1258.1569" id="radialGradient3699" xlink:href="#linearGradient3918" gradientUnits="userSpaceOnUse" gradientTransform="matrix(1,0,0,2.3,0,-1635.604)" />
    <linearGradient id="linearGradient3918">
      <stop id="stop3920" style="stop-color:#ffffff;stop-opacity:1" offset="0" />
      <stop id="stop3922" style="stop-color:#ffffff;stop-opacity:0" offset="1" />
    </linearGradient>
    <radialGradient cx="1009.6047" cy="1258.1569" r="97.07737" fx="1009.6047" fy="1258.1569" id="radialGradient3022" xlink:href="#linearGradient3918" gradientUnits="userSpaceOnUse" gradientTransform="matrix(1,0,0,2.3,0,-1635.604)" />
    <radialGradient cx="874.92682" cy="2245.0464" r="509.11688" fx="871.52045" fy="2095.9019" id="radialGradient3787" xlink:href="#linearGradient3781" gradientUnits="userSpaceOnUse" gradientTransform="matrix(1,0,0,0.1925926,0,1812.6671)" />
    <linearGradient id="linearGradient3781">
      <stop id="stop3783" style="stop-color:#000000;stop-opacity:1" offset="0" />
      <stop id="stop3785" style="stop-color:#000000;stop-opacity:0" offset="1" />
    </linearGradient>
    <linearGradient x1="1240.7367" y1="559.30371" x2="1240.7367" y2="2102.0344" id="linearGradient3777" xlink:href="#linearGradient3771" gradientUnits="userSpaceOnUse" gradientTransform="matrix(1,0,0,0.9675825,0,12.621215)" />
    <linearGradient id="linearGradient3771">
      <stop id="stop3773" style="stop-color:#774f38;stop-opacity:1" offset="0" />
      <stop id="stop3775" style="stop-color:#312c20;stop-opacity:1" offset="1" />
    </linearGradient>
    <filter id="filter3767" color-interpolation-filters="sRGB">
      <feGaussianBlur id="feGaussianBlur3769" stdDeviation="20.951469" ns2:collect="always" />
    </filter>
    <radialGradient cx="1033.5078" cy="1169.8499" r="408.07211" fx="1033.5078" fy="1169.8499" id="radialGradient3730" xlink:href="#linearGradient3714-801" gradientUnits="userSpaceOnUse" gradientTransform="matrix(1,0,0,0.8194983,0,211.15995)" />
    <linearGradient id="linearGradient3714-801">
      <stop id="stop3025" style="stop-color:#292929;stop-opacity:1" offset="0" />
      <stop id="stop3027" style="stop-color:#292929;stop-opacity:0" offset="1" />
    </linearGradient>
    <radialGradient cx="691.08917" cy="1964.7207" r="113.78844" fx="691.08917" fy="1964.7207" id="radialGradient3720" xlink:href="#linearGradient3714-801" gradientUnits="userSpaceOnUse" gradientTransform="matrix(1.9999999,1.597633e-7,-4.3631048e-7,5.4619607,-660.42162,-8553.4156)" />
    <linearGradient x1="1335.6133" y1="1867.3124" x2="1041.0312" y2="1760.6458" id="linearGradient3737-164" xlink:href="#linearGradient3714-801" gradientUnits="userSpaceOnUse" />
    <radialGradient cx="475.17575" cy="1743.4718" r="179.71709" fx="475.17575" fy="1743.4718" id="radialGradient3729-373" xlink:href="#linearGradient3962-3" gradientUnits="userSpaceOnUse" gradientTransform="matrix(0.5455916,-1.8452643e-8,3.5599905e-8,1.1751202,215.92378,-305.31716)" />
    <linearGradient id="linearGradient3962-3">
      <stop id="stop3964-3" style="stop-color:#ffffff;stop-opacity:1" offset="0" />
      <stop id="stop3966-3" style="stop-color:#ffffff;stop-opacity:0" offset="1" />
    </linearGradient>
    <filter height="1.3222857" y="-0.16114286" width="1.1367273" x="-0.068363637" id="filter3814" color-interpolation-filters="sRGB">
      <feGaussianBlur id="feGaussianBlur3816" stdDeviation="7.0899242" ns2:collect="always" />
    </filter>
    <linearGradient x1="670.52679" y1="2115.0645" x2="541.25116" y2="2118.8357" id="linearGradient3721" xlink:href="#linearGradient3714-801" gradientUnits="userSpaceOnUse" />
    <radialGradient cx="475.17575" cy="1743.4718" r="179.71709" fx="475.17575" fy="1743.4718" id="radialGradient4354" xlink:href="#linearGradient3962-3" gradientUnits="userSpaceOnUse" gradientTransform="matrix(0.5455916,-1.8452643e-8,3.5599905e-8,1.1751202,215.92378,-305.31716)" />
    <linearGradient x1="-882.66663" y1="584.66663" x2="-882.66663" y2="683.33331" id="linearGradient3958" xlink:href="#linearGradient3750" gradientUnits="userSpaceOnUse" />
    <linearGradient id="linearGradient3750">
      <stop id="stop3752" style="stop-color:#ce9d5e;stop-opacity:1" offset="0" />
      <stop id="stop3754" style="stop-color:#ce9d5e;stop-opacity:0" offset="1" />
    </linearGradient>
    <radialGradient cx="554.66669" cy="1029.3334" r="85.333336" fx="554.66669" fy="1029.3334" id="radialGradient3968" xlink:href="#linearGradient3962-3" gradientUnits="userSpaceOnUse" />
    <radialGradient cx="554.66669" cy="1029.3334" r="85.333336" fx="554.66669" fy="1029.3334" id="radialGradient3972" xlink:href="#linearGradient3962-3" gradientUnits="userSpaceOnUse" />
    <radialGradient cx="554.66669" cy="1029.3334" r="85.333336" fx="554.66669" fy="1029.3334" id="radialGradient3976" xlink:href="#linearGradient3962-3" gradientUnits="userSpaceOnUse" />
    <radialGradient cx="554.66669" cy="1029.3334" r="85.333336" fx="554.66669" fy="1029.3334" id="radialGradient3248" xlink:href="#linearGradient3962-3" gradientUnits="userSpaceOnUse" />
    <radialGradient cx="959.12445" cy="2397.8452" r="764.96967" fx="959.12445" fy="2397.8452" id="radialGradient3782" xlink:href="#linearGradient3776" gradientUnits="userSpaceOnUse" gradientTransform="matrix(1,0,0,0.1928934,0,1935.3167)" />
    <linearGradient id="linearGradient3776">
      <stop id="stop3778" style="stop-color:#050505;stop-opacity:1" offset="0" />
      <stop id="stop3780" style="stop-color:#050505;stop-opacity:0" offset="1" />
    </linearGradient>
    <linearGradient x1="826.68335" y1="886.42108" x2="613.11316" y2="629.33618" id="linearGradient3737" xlink:href="#linearGradient3731" gradientUnits="userSpaceOnUse" gradientTransform="translate(-3.8830949,11.649285)" />
    <linearGradient id="linearGradient3731">
      <stop id="stop3733" style="stop-color:#ce9d5e;stop-opacity:1" offset="0" />
      <stop id="stop3735" style="stop-color:#ce9d5e;stop-opacity:0" offset="1" />
    </linearGradient>
    <radialGradient cx="1105.1711" cy="2351.083" r="110.45953" fx="1105.1711" fy="2351.083" id="radialGradient4168" xlink:href="#linearGradient3918-9" gradientUnits="userSpaceOnUse" gradientTransform="matrix(0.9883423,-0.1522484,0.3231492,2.0977699,-746.86691,-2397.3339)" />
    <linearGradient id="linearGradient3918-9">
      <stop id="stop3920-4" style="stop-color:#ffffff;stop-opacity:1" offset="0" />
      <stop id="stop3922-6" style="stop-color:#ffffff;stop-opacity:0" offset="1" />
    </linearGradient>
    <linearGradient x1="524.43793" y1="2382.3132" x2="524.43793" y2="1819.2642" id="linearGradient4004" xlink:href="#linearGradient3990" gradientUnits="userSpaceOnUse" />
    <linearGradient id="linearGradient3990">
      <stop id="stop3992" style="stop-color:#6a4a3c;stop-opacity:1" offset="0" />
      <stop id="stop3994" style="stop-color:#312c20;stop-opacity:1" offset="1" />
    </linearGradient>
    <linearGradient x1="1351.317" y1="2362.8975" x2="1351.317" y2="1896.6598" id="linearGradient3996" xlink:href="#linearGradient3990" gradientUnits="userSpaceOnUse" />
    <radialGradient cx="390.59732" cy="1489.4078" r="200.60168" fx="390.59732" fy="1489.4078" id="radialGradient3790" xlink:href="#linearGradient3784" gradientUnits="userSpaceOnUse" gradientTransform="matrix(1,0,0,0.9959389,0,6.048682)" />
    <linearGradient id="linearGradient3784">
      <stop id="stop3786" style="stop-color:#850025;stop-opacity:1" offset="0" />
      <stop id="stop3788" style="stop-color:#bd1550;stop-opacity:1" offset="1" />
    </linearGradient>
    <radialGradient cx="385.06067" cy="1489.9697" r="135.07349" fx="385.06067" fy="1489.9697" id="radialGradient3798" xlink:href="#linearGradient3784" gradientUnits="userSpaceOnUse" gradientTransform="matrix(1,0,0,1.0339741,0,-50.620411)" />
    <radialGradient cx="399.24338" cy="1498.0782" r="70.841187" fx="399.24338" fy="1498.0782" id="radialGradient3807" xlink:href="#linearGradient3784" gradientUnits="userSpaceOnUse" gradientTransform="matrix(1,0,0,1.0002619,0,-0.3923322)" />
    <radialGradient cx="1009.6047" cy="1258.1569" r="97.07737" fx="1009.6047" fy="1258.1569" id="radialGradient3772-994" xlink:href="#linearGradient3918-9" gradientUnits="userSpaceOnUse" gradientTransform="matrix(1,0,0,2.3,0,-1635.604)" />
    <radialGradient cx="996.01385" cy="900.91217" r="79.603447" fx="996.01385" fy="900.91217" id="radialGradient3928" xlink:href="#linearGradient3918-9" gradientUnits="userSpaceOnUse" />
    <radialGradient cx="996.01385" cy="900.91217" r="79.603447" fx="996.01385" fy="900.91217" id="radialGradient3932" xlink:href="#linearGradient3918-9" gradientUnits="userSpaceOnUse" />
    <radialGradient cx="996.01385" cy="900.91217" r="79.603447" fx="996.01385" fy="900.91217" id="radialGradient3936" xlink:href="#linearGradient3918-9" gradientUnits="userSpaceOnUse" />
    <radialGradient cx="996.01385" cy="900.91217" r="79.603447" fx="996.01385" fy="900.91217" id="radialGradient3924" xlink:href="#linearGradient3918-9" gradientUnits="userSpaceOnUse" />
    <radialGradient cx="996.01385" cy="900.91217" r="79.603447" fx="996.01385" fy="900.91217" id="radialGradient3952" xlink:href="#linearGradient3918-9" gradientUnits="userSpaceOnUse" />
    <radialGradient cx="996.01385" cy="900.91217" r="79.603447" fx="996.01385" fy="900.91217" id="radialGradient3956" xlink:href="#linearGradient3918-9" gradientUnits="userSpaceOnUse" />
    <radialGradient cx="996.01385" cy="900.91217" r="79.603447" fx="996.01385" fy="900.91217" id="radialGradient3418" xlink:href="#linearGradient3918-9" gradientUnits="userSpaceOnUse" />
    <radialGradient cx="924.17664" cy="2399.7869" r="679.54163" fx="924.17664" fy="2399.7869" id="radialGradient3906" xlink:href="#linearGradient3900" gradientUnits="userSpaceOnUse" gradientTransform="matrix(1,0,0,0.2714286,0,1748.4162)" />
    <linearGradient id="linearGradient3900">
      <stop id="stop3902" style="stop-color:#303030;stop-opacity:1" offset="0" />
      <stop id="stop3904" style="stop-color:#303030;stop-opacity:0" offset="1" />
    </linearGradient>
    <radialGradient cx="475.17575" cy="1743.4718" r="179.71709" fx="475.17575" fy="1743.4718" id="radialGradient3869" xlink:href="#linearGradient3918-99" gradientUnits="userSpaceOnUse" gradientTransform="matrix(0.5455916,-1.8452643e-8,3.5599905e-8,1.1751202,215.92378,-305.31716)" />
    <linearGradient id="linearGradient3918-99">
      <stop id="stop3920-0" style="stop-color:#ffffff;stop-opacity:1" offset="0" />
      <stop id="stop3922-8" style="stop-color:#ffffff;stop-opacity:0" offset="1" />
    </linearGradient>
    <radialGradient cx="475.17575" cy="1743.4718" r="179.71709" fx="475.17575" fy="1743.4718" id="radialGradient3892" xlink:href="#linearGradient3918-99" gradientUnits="userSpaceOnUse" gradientTransform="matrix(0.5455916,-1.8452643e-8,3.5599905e-8,1.1751202,215.92378,-305.31716)" />
    <radialGradient cx="475.17575" cy="1743.4718" r="179.71709" fx="475.17575" fy="1743.4718" id="radialGradient3896" xlink:href="#linearGradient3918-99" gradientUnits="userSpaceOnUse" gradientTransform="matrix(0.5455916,-1.8452643e-8,3.5599905e-8,1.1751202,215.92378,-305.31716)" />
    <radialGradient cx="996.01385" cy="900.91217" r="79.603447" fx="996.01385" fy="900.91217" id="radialGradient4547" xlink:href="#linearGradient3918-99" gradientUnits="userSpaceOnUse" />
    <radialGradient cx="996.01385" cy="900.91217" r="79.603447" fx="996.01385" fy="900.91217" id="radialGradient4551" xlink:href="#linearGradient3918-99" gradientUnits="userSpaceOnUse" />
    <radialGradient cx="996.01385" cy="900.91217" r="79.603447" fx="996.01385" fy="900.91217" id="radialGradient4555" xlink:href="#linearGradient3918-99" gradientUnits="userSpaceOnUse" />
    <radialGradient cx="996.01385" cy="900.91217" r="79.603447" fx="996.01385" fy="900.91217" id="radialGradient4559" xlink:href="#linearGradient3918-99" gradientUnits="userSpaceOnUse" />
    <radialGradient cx="996.01385" cy="900.91217" r="79.603447" fx="996.01385" fy="900.91217" id="radialGradient3576" xlink:href="#linearGradient3918-99" gradientUnits="userSpaceOnUse" />
    <linearGradient id="linearGradient3692">
      <stop id="stop3694" style="stop-color:#000000;stop-opacity:1" offset="0" />
      <stop id="stop3696" style="stop-color:#000000;stop-opacity:0" offset="1" />
    </linearGradient>
    <linearGradient id="linearGradient3676">
      <stop id="stop3678" style="stop-color:#000000;stop-opacity:1" offset="0" />
      <stop id="stop3680" style="stop-color:#000000;stop-opacity:0" offset="1" />
    </linearGradient>
    <linearGradient id="linearGradient3962-8">
      <stop id="stop3964-7" style="stop-color:#ffffff;stop-opacity:1" offset="0" />
      <stop id="stop3966-0" style="stop-color:#ffffff;stop-opacity:0" offset="1" />
    </linearGradient>
    <linearGradient id="linearGradient3962-3-4">
      <stop id="stop3964-9" style="stop-color:#ffffff;stop-opacity:1" offset="0" />
      <stop id="stop3966-2" style="stop-color:#ffffff;stop-opacity:0" offset="1" />
    </linearGradient>
    <radialGradient cx="1004.9492" cy="2377.8306" r="917.08472" fx="1004.9492" fy="2377.8306" id="radialGradient5589" xlink:href="#linearGradient3692" gradientUnits="userSpaceOnUse" gradientTransform="matrix(1,0,0,0.1796407,0,1950.6754)" />
    <radialGradient cx="1145.5129" cy="2335.7158" r="757.20349" fx="1145.5129" fy="2335.7158" id="radialGradient5713" xlink:href="#linearGradient3676" gradientUnits="userSpaceOnUse" gradientTransform="matrix(1,0,0,0.2974359,0,1640.9901)" />
    <radialGradient cx="848.45624" cy="566.966" r="137.84987" fx="848.45624" fy="566.966" id="radialGradient5715" xlink:href="#linearGradient3962-8" gradientUnits="userSpaceOnUse" gradientTransform="matrix(1,0,0,1.5915493,0,-335.38836)" />
    <radialGradient cx="554.66669" cy="1029.3334" r="85.333336" fx="554.66669" fy="1029.3334" id="radialGradient5717" xlink:href="#linearGradient3962-8" gradientUnits="userSpaceOnUse" />
    <radialGradient cx="554.66669" cy="1029.3334" r="85.333336" fx="554.66669" fy="1029.3334" id="radialGradient5719" xlink:href="#linearGradient3962-3-4" gradientUnits="userSpaceOnUse" />
    <radialGradient cx="554.66669" cy="1029.3334" r="85.333336" fx="554.66669" fy="1029.3334" id="radialGradient5721" xlink:href="#linearGradient3962-3-4" gradientUnits="userSpaceOnUse" />
    <radialGradient cx="554.66669" cy="1029.3334" r="85.333336" fx="554.66669" fy="1029.3334" id="radialGradient5723" xlink:href="#linearGradient3962-3-4" gradientUnits="userSpaceOnUse" />
    <radialGradient cx="1145.5129" cy="2335.7158" r="757.20349" fx="1145.5129" fy="2335.7158" id="radialGradient2944" xlink:href="#linearGradient3676-4" gradientUnits="userSpaceOnUse" gradientTransform="matrix(1,0,0,0.2974359,0,1640.9901)" />
    <linearGradient id="linearGradient3676-4">
      <stop id="stop3678-2" style="stop-color:#000000;stop-opacity:1" offset="0" />
      <stop id="stop3680-2" style="stop-color:#000000;stop-opacity:0" offset="1" />
    </linearGradient>
    <radialGradient cx="848.45624" cy="566.966" r="137.84987" fx="848.45624" fy="566.966" id="radialGradient2946" xlink:href="#linearGradient3744" gradientUnits="userSpaceOnUse" gradientTransform="matrix(1,0,0,1.5915493,0,-335.38836)" />
    <linearGradient id="linearGradient3744">
      <stop id="stop3746" style="stop-color:#e61a55;stop-opacity:1" offset="0" />
      <stop id="stop3748" style="stop-color:#e61a55;stop-opacity:0" offset="1" />
    </linearGradient>
    <linearGradient x1="-40.426018" y1="1755.6469" x2="477.22391" y2="1425.5837" id="linearGradient2948" xlink:href="#linearGradient3744" gradientUnits="userSpaceOnUse" gradientTransform="translate(178.62237,0)" />
    <radialGradient cx="554.66669" cy="1029.3334" r="85.333336" fx="554.66669" fy="1029.3334" id="radialGradient2950" xlink:href="#linearGradient3962-6" gradientUnits="userSpaceOnUse" />
    <linearGradient id="linearGradient3962-6">
      <stop id="stop3964-4" style="stop-color:#ffffff;stop-opacity:1" offset="0" />
      <stop id="stop3966-1" style="stop-color:#ffffff;stop-opacity:0" offset="1" />
    </linearGradient>
    <radialGradient cx="554.66669" cy="1029.3334" r="85.333336" fx="554.66669" fy="1029.3334" id="radialGradient2952" xlink:href="#linearGradient3962-3-2" gradientUnits="userSpaceOnUse" />
    <linearGradient id="linearGradient3962-3-2">
      <stop id="stop3964-9-8" style="stop-color:#ffffff;stop-opacity:1" offset="0" />
      <stop id="stop3966-2-8" style="stop-color:#ffffff;stop-opacity:0" offset="1" />
    </linearGradient>
    <radialGradient cx="554.66669" cy="1029.3334" r="85.333336" fx="554.66669" fy="1029.3334" id="radialGradient2954" xlink:href="#linearGradient3962-3-2" gradientUnits="userSpaceOnUse" />
    <radialGradient cx="554.66669" cy="1029.3334" r="85.333336" fx="554.66669" fy="1029.3334" id="radialGradient3060" xlink:href="#linearGradient3962-3-2" gradientUnits="userSpaceOnUse" />
    <radialGradient cx="1004.9492" cy="2377.8306" r="917.08472" fx="1004.9492" fy="2377.8306" id="radialGradient2868" xlink:href="#linearGradient3692-1" gradientUnits="userSpaceOnUse" gradientTransform="matrix(1,0,0,0.1796407,0,1950.6754)" />
    <linearGradient id="linearGradient3692-1">
      <stop id="stop3694-7" style="stop-color:#000000;stop-opacity:1" offset="0" />
      <stop id="stop3696-8" style="stop-color:#000000;stop-opacity:0" offset="1" />
    </linearGradient>
    <radialGradient cx="917.08472" cy="2388.8135" r="851.18646" fx="1087.322" fy="2388.8135" id="radialGradient2881" xlink:href="#linearGradient3708-2" gradientUnits="userSpaceOnUse" gradientTransform="matrix(1,0,0,0.2258064,0,1849.404)" />
    <linearGradient id="linearGradient3708-2">
      <stop id="stop3710-0" style="stop-color:#000000;stop-opacity:1" offset="0" />
      <stop id="stop3712-1" style="stop-color:#000000;stop-opacity:0" offset="1" />
    </linearGradient>
    <radialGradient cx="1009.6047" cy="1258.1569" r="97.07737" fx="1009.6047" fy="1258.1569" id="radialGradient2883" xlink:href="#linearGradient3634" gradientUnits="userSpaceOnUse" gradientTransform="matrix(1,0,0,2.3,0,-1635.604)" />
    <linearGradient id="linearGradient3634">
      <stop id="stop3636" style="stop-color:#ff5c73;stop-opacity:1" offset="0" />
      <stop id="stop3638" style="stop-color:#ff153e;stop-opacity:0" offset="1" />
    </linearGradient>
    <radialGradient cx="1009.6047" cy="1258.1569" r="97.07737" fx="1009.6047" fy="1258.1569" id="radialGradient2885" xlink:href="#linearGradient3634" gradientUnits="userSpaceOnUse" gradientTransform="matrix(1,0,0,2.3,0,-1635.604)" />
    <radialGradient cx="924.17664" cy="2399.7869" r="679.54163" fx="924.17664" fy="2399.7869" id="radialGradient2967" xlink:href="#linearGradient3900-9" gradientUnits="userSpaceOnUse" gradientTransform="matrix(1,0,0,0.2714286,0,1748.4162)" />
    <linearGradient id="linearGradient3900-9">
      <stop id="stop3902-6" style="stop-color:#303030;stop-opacity:1" offset="0" />
      <stop id="stop3904-0" style="stop-color:#303030;stop-opacity:0" offset="1" />
    </linearGradient>
    <radialGradient cx="475.17575" cy="1743.4718" r="179.71709" fx="475.17575" fy="1743.4718" id="radialGradient2969" xlink:href="#linearGradient3634-7" gradientUnits="userSpaceOnUse" gradientTransform="matrix(0.5455916,-1.8452643e-8,3.5599905e-8,1.1751202,215.92378,-305.31716)" />
    <linearGradient id="linearGradient3634-7">
      <stop id="stop3636-0" style="stop-color:#ff5c73;stop-opacity:1" offset="0" />
      <stop id="stop3638-1" style="stop-color:#ff153e;stop-opacity:0" offset="1" />
    </linearGradient>
    <radialGradient cx="933.89056" cy="365.98615" r="320.35938" fx="933.89056" fy="365.98615" id="radialGradient2971" xlink:href="#linearGradient3918-0" gradientUnits="userSpaceOnUse" gradientTransform="matrix(-1.3256936,1.7787876e-7,-2.490445e-7,-1.8560771,2171.9434,1212.7491)" />
    <linearGradient id="linearGradient3918-0">
      <stop id="stop3920-1" style="stop-color:#ffffff;stop-opacity:1" offset="0" />
      <stop id="stop3922-3" style="stop-color:#ffffff;stop-opacity:0" offset="1" />
    </linearGradient>
    <radialGradient cx="475.17575" cy="1743.4718" r="179.71709" fx="475.17575" fy="1743.4718" id="radialGradient2973" xlink:href="#linearGradient3634-7" gradientUnits="userSpaceOnUse" gradientTransform="matrix(0.5455916,-1.8452643e-8,3.5599905e-8,1.1751202,215.92378,-305.31716)" />
    <radialGradient cx="475.17575" cy="1743.4718" r="179.71709" fx="475.17575" fy="1743.4718" id="radialGradient2975" xlink:href="#linearGradient3634-7" gradientUnits="userSpaceOnUse" gradientTransform="matrix(0.5455916,-1.8452643e-8,3.5599905e-8,1.1751202,215.92378,-305.31716)" />
    <radialGradient cx="996.01385" cy="900.91217" r="79.603447" fx="996.01385" fy="900.91217" id="radialGradient2977" xlink:href="#linearGradient3918-0" gradientUnits="userSpaceOnUse" />
    <radialGradient cx="996.01385" cy="900.91217" r="79.603447" fx="996.01385" fy="900.91217" id="radialGradient2979" xlink:href="#linearGradient3918-0" gradientUnits="userSpaceOnUse" />
    <radialGradient cx="996.01385" cy="900.91217" r="79.603447" fx="996.01385" fy="900.91217" id="radialGradient2981" xlink:href="#linearGradient3918-0" gradientUnits="userSpaceOnUse" />
    <radialGradient cx="996.01385" cy="900.91217" r="79.603447" fx="996.01385" fy="900.91217" id="radialGradient2983" xlink:href="#linearGradient3918-0" gradientUnits="userSpaceOnUse" />
    <radialGradient cx="996.01385" cy="900.91217" r="79.603447" fx="996.01385" fy="900.91217" id="radialGradient3125" xlink:href="#linearGradient3918-0" gradientUnits="userSpaceOnUse" />
    <radialGradient cx="959.12445" cy="2397.8452" r="764.96967" fx="959.12445" fy="2397.8452" id="radialGradient3162" xlink:href="#linearGradient3776-4" gradientUnits="userSpaceOnUse" gradientTransform="matrix(1,0,0,0.1928934,0,1935.3167)" />
    <linearGradient id="linearGradient3776-4">
      <stop id="stop3778-3" style="stop-color:#050505;stop-opacity:1" offset="0" />
      <stop id="stop3780-7" style="stop-color:#050505;stop-opacity:0" offset="1" />
    </linearGradient>
    <linearGradient x1="768.43689" y1="811.84161" x2="578.16528" y2="691.4657" id="linearGradient3164" xlink:href="#linearGradient3770" gradientUnits="userSpaceOnUse" />
    <linearGradient id="linearGradient3770">
      <stop id="stop3772" style="stop-color:#8e6c11;stop-opacity:1" offset="0" />
      <stop id="stop3774" style="stop-color:#8e6c11;stop-opacity:0" offset="1" />
    </linearGradient>
    <radialGradient cx="1105.1711" cy="2351.083" r="110.45953" fx="1105.1711" fy="2351.083" id="radialGradient3166" xlink:href="#linearGradient3634-1" gradientUnits="userSpaceOnUse" gradientTransform="matrix(0.9883423,-0.1522484,0.3231492,2.0977699,-746.86691,-2397.3339)" />
    <linearGradient id="linearGradient3634-1">
      <stop id="stop3636-2" style="stop-color:#ff5c73;stop-opacity:1" offset="0" />
      <stop id="stop3638-2" style="stop-color:#ff153e;stop-opacity:0" offset="1" />
    </linearGradient>
    <linearGradient x1="524.43793" y1="2382.3132" x2="524.43793" y2="1819.2642" id="linearGradient3168" xlink:href="#linearGradient3990-0" gradientUnits="userSpaceOnUse" />
    <linearGradient id="linearGradient3990-0">
      <stop id="stop3992-2" style="stop-color:#6a4a3c;stop-opacity:1" offset="0" />
      <stop id="stop3994-1" style="stop-color:#312c20;stop-opacity:1" offset="1" />
    </linearGradient>
    <linearGradient x1="1351.317" y1="2362.8975" x2="1351.317" y2="1896.6598" id="linearGradient3170" xlink:href="#linearGradient3990-0" gradientUnits="userSpaceOnUse" />
    <radialGradient cx="390.59732" cy="1489.4078" r="200.60168" fx="390.59732" fy="1489.4078" id="radialGradient3172" xlink:href="#linearGradient3784-7" gradientUnits="userSpaceOnUse" gradientTransform="matrix(1,0,0,0.9959389,0,6.048682)" />
    <linearGradient id="linearGradient3784-7">
      <stop id="stop3786-5" style="stop-color:#850025;stop-opacity:1" offset="0" />
      <stop id="stop3788-1" style="stop-color:#bd1550;stop-opacity:1" offset="1" />
    </linearGradient>
    <radialGradient cx="385.06067" cy="1489.9697" r="135.07349" fx="385.06067" fy="1489.9697" id="radialGradient3174" xlink:href="#linearGradient3784-7" gradientUnits="userSpaceOnUse" gradientTransform="matrix(1,0,0,1.0339741,0,-50.620411)" />
    <radialGradient cx="399.24338" cy="1498.0782" r="70.841187" fx="399.24338" fy="1498.0782" id="radialGradient3176" xlink:href="#linearGradient3784-7" gradientUnits="userSpaceOnUse" gradientTransform="matrix(1,0,0,1.0002619,0,-0.3923322)" />
    <radialGradient cx="1009.6047" cy="1258.1569" r="97.07737" fx="1009.6047" fy="1258.1569" id="radialGradient3178" xlink:href="#linearGradient3634-1" gradientUnits="userSpaceOnUse" gradientTransform="matrix(1,0,0,2.3,0,-1635.604)" />
    <radialGradient cx="996.01385" cy="900.91217" r="79.603447" fx="996.01385" fy="900.91217" id="radialGradient3180" xlink:href="#linearGradient3918-7" gradientUnits="userSpaceOnUse" />
    <linearGradient id="linearGradient3918-7">
      <stop id="stop3920-41" style="stop-color:#ffffff;stop-opacity:1" offset="0" />
      <stop id="stop3922-7" style="stop-color:#ffffff;stop-opacity:0" offset="1" />
    </linearGradient>
    <radialGradient cx="996.01385" cy="900.91217" r="79.603447" fx="996.01385" fy="900.91217" id="radialGradient3182" xlink:href="#linearGradient3918-7" gradientUnits="userSpaceOnUse" />
    <radialGradient cx="996.01385" cy="900.91217" r="79.603447" fx="996.01385" fy="900.91217" id="radialGradient3184" xlink:href="#linearGradient3918-7" gradientUnits="userSpaceOnUse" />
    <radialGradient cx="996.01385" cy="900.91217" r="79.603447" fx="996.01385" fy="900.91217" id="radialGradient3186" xlink:href="#linearGradient3918-7" gradientUnits="userSpaceOnUse" />
    <radialGradient cx="996.01385" cy="900.91217" r="79.603447" fx="996.01385" fy="900.91217" id="radialGradient3188" xlink:href="#linearGradient3918-7" gradientUnits="userSpaceOnUse" />
    <radialGradient cx="996.01385" cy="900.91217" r="79.603447" fx="996.01385" fy="900.91217" id="radialGradient3190" xlink:href="#linearGradient3918-7" gradientUnits="userSpaceOnUse" />
    <radialGradient cx="996.01385" cy="900.91217" r="79.603447" fx="996.01385" fy="900.91217" id="radialGradient3456" xlink:href="#linearGradient3918-7" gradientUnits="userSpaceOnUse" />
    <radialGradient cx="874.92682" cy="2245.0464" r="509.11688" fx="871.52045" fy="2095.9019" id="radialGradient3045" xlink:href="#linearGradient3781-2" gradientUnits="userSpaceOnUse" gradientTransform="matrix(1,0,0,0.1925926,0,1812.6671)" />
    <linearGradient id="linearGradient3781-2">
      <stop id="stop3783-2" style="stop-color:#000000;stop-opacity:1" offset="0" />
      <stop id="stop3785-3" style="stop-color:#000000;stop-opacity:0" offset="1" />
    </linearGradient>
    <linearGradient x1="1240.7367" y1="559.30371" x2="1240.7367" y2="2102.0344" id="linearGradient3047" xlink:href="#linearGradient3771-3" gradientUnits="userSpaceOnUse" gradientTransform="matrix(1,0,0,0.9675825,0,12.621215)" />
    <linearGradient id="linearGradient3771-3">
      <stop id="stop3773-4" style="stop-color:#774f38;stop-opacity:1" offset="0" />
      <stop id="stop3775-2" style="stop-color:#312c20;stop-opacity:1" offset="1" />
    </linearGradient>
    <filter id="filter3767-2" color-interpolation-filters="sRGB">
      <feGaussianBlur id="feGaussianBlur3769-4" stdDeviation="20.951469" ns2:collect="always" />
    </filter>
    <radialGradient cx="1033.5078" cy="1169.8499" r="408.07211" fx="1033.5078" fy="1169.8499" id="radialGradient3049" xlink:href="#linearGradient3678" gradientUnits="userSpaceOnUse" gradientTransform="matrix(1,0,0,0.8194983,0,211.15995)" />
    <linearGradient id="linearGradient3678">
      <stop id="stop3680-5" style="stop-color:#490a3d;stop-opacity:1" offset="0" />
      <stop id="stop3682" style="stop-color:#490a3d;stop-opacity:0" offset="1" />
    </linearGradient>
    <radialGradient cx="691.08917" cy="1964.7207" r="113.78844" fx="691.08917" fy="1964.7207" id="radialGradient3051" xlink:href="#linearGradient3678" gradientUnits="userSpaceOnUse" gradientTransform="matrix(1.9999999,1.597633e-7,-4.3631048e-7,5.4619607,-660.42162,-8553.4156)" />
    <linearGradient x1="1335.6133" y1="1867.3124" x2="1041.0312" y2="1760.6458" id="linearGradient3053" xlink:href="#linearGradient3678" gradientUnits="userSpaceOnUse" />
    <radialGradient cx="475.17575" cy="1743.4718" r="179.71709" fx="475.17575" fy="1743.4718" id="radialGradient3055" xlink:href="#linearGradient3634-17" gradientUnits="userSpaceOnUse" gradientTransform="matrix(0.5455916,-1.8452643e-8,3.5599905e-8,1.1751202,215.92378,-305.31716)" />
    <linearGradient id="linearGradient3634-17">
      <stop id="stop3636-5" style="stop-color:#ff5c73;stop-opacity:1" offset="0" />
      <stop id="stop3638-7" style="stop-color:#ff153e;stop-opacity:0" offset="1" />
    </linearGradient>
    <filter height="1.3222857" y="-0.16114286" width="1.1367273" x="-0.068363637" id="filter3814-1" color-interpolation-filters="sRGB">
      <feGaussianBlur id="feGaussianBlur3816-6" stdDeviation="7.0899242" ns2:collect="always" />
    </filter>
    <linearGradient x1="670.52679" y1="2115.0645" x2="541.25116" y2="2118.8357" id="linearGradient3057" xlink:href="#linearGradient3678" gradientUnits="userSpaceOnUse" />
    <radialGradient cx="475.17575" cy="1743.4718" r="179.71709" fx="475.17575" fy="1743.4718" id="radialGradient3059" xlink:href="#linearGradient3634-17" gradientUnits="userSpaceOnUse" gradientTransform="matrix(0.5455916,-1.8452643e-8,3.5599905e-8,1.1751202,215.92378,-305.31716)" />
    <linearGradient id="linearGradient3962-9">
      <stop id="stop3964-8" style="stop-color:#ffffff;stop-opacity:1" offset="0" />
      <stop id="stop3966-13" style="stop-color:#ffffff;stop-opacity:0" offset="1" />
    </linearGradient>
    <radialGradient cx="554.66669" cy="1029.3334" r="85.333336" fx="554.66669" fy="1029.3334" id="radialGradient3063" xlink:href="#linearGradient3962-9" gradientUnits="userSpaceOnUse" />
    <radialGradient cx="554.66669" cy="1029.3334" r="85.333336" fx="554.66669" fy="1029.3334" id="radialGradient3065" xlink:href="#linearGradient3962-9" gradientUnits="userSpaceOnUse" />
    <radialGradient cx="554.66669" cy="1029.3334" r="85.333336" fx="554.66669" fy="1029.3334" id="radialGradient3067" xlink:href="#linearGradient3962-9" gradientUnits="userSpaceOnUse" />
    <radialGradient cx="554.66669" cy="1029.3334" r="85.333336" fx="554.66669" fy="1029.3334" id="radialGradient3251" xlink:href="#linearGradient3962-9" gradientUnits="userSpaceOnUse" />
    <radialGradient cx="-882.66663" cy="1030.8578" r="282.66669" fx="-882.66663" fy="1030.8578" id="radialGradient4876" xlink:href="#linearGradient3962-9" gradientUnits="userSpaceOnUse" gradientTransform="matrix(-1.4502759,-1.4559449e-7,-1.845882e-7,1.8386948,-397.58153,-925.7658)" />
  </defs>
  
<g id="BlackKnight">
      <rect width="200" height="200" x="452" y="680.36218" id="rect5787" style="opacity:0;fill:#312c20;fill-opacity:1;fill-rule:nonzero;stroke:none" />
      <g transform="matrix(7.489827e-2,0,0,7.489827e-2,483.31194,682.04849)" id="g2851">
        <path d="M 550.125,685.375 C 549.26965,685.46718 547.59882,688.16265 543.71875,697.15625 C 542.27077,697.43616 541.81373,697.94689 541.1875,698.46875 C 539.44248,699.92294 536.24714,704.88495 531.59375,708.375 C 526.94036,711.86505 522.57135,712.74401 514.71875,725.25 C 506.86615,737.75599 499.88035,743.85656 505.40625,752 C 505.82943,752.62364 506.25052,753.16504 506.65625,753.6875 C 494.37768,780.15544 497.51401,805.9659 503.65625,834.59375 C 505.69211,847.97226 503.65874,856.70169 504.53125,854.375 C 505.2623,852.42553 506.5523,853.67785 506.96875,854.15625 C 506.83921,858.38755 507.4728,860.91696 509.40625,861.21875 C 510.62739,861.40936 514.57632,861.97344 518.78125,862.28125 C 519.10984,864.43438 519.81452,865.6794 521.03125,865.90625 C 523.82616,866.42733 540.85548,869.54729 542.71875,865.03125 C 543.83189,862.3333 543.77154,857.79497 543.53125,854.5625 L 545.84375,856.40625 C 545.84375,856.40625 544.09126,844.76807 543.21875,832.84375 C 542.34624,820.91943 548.15625,806.6875 548.15625,806.6875 C 548.15625,806.6875 549.40649,807.07001 551.34375,807.03125 C 553.42688,825.09812 552.34258,839.12093 551.65625,844.0625 C 550.92916,849.29757 548.90625,855.53125 548.90625,855.53125 L 551.75,853.625 C 551.28139,859.38347 551.683,862.80556 553.75,863.15625 C 555.08556,863.38285 560.10171,864.19411 564.6875,864.34375 C 565.12069,865.39262 565.79149,866.01486 566.78125,866.15625 C 569.83504,866.59251 588.46414,869.21838 590.5,865.4375 C 591.82208,862.98221 591.59175,858.70991 591.28125,856 C 591.97142,856.12781 592.42094,855.95032 592.09375,854.96875 C 591.22124,852.35121 590.625,827.31352 590.625,813.0625 C 590.625,798.81149 597.60085,787.48719 596.4375,779.34375 C 595.34186,771.67425 590.29175,751.9943 589.6875,749.65625 C 589.93333,747.99339 590.13574,746.23866 590.3125,744.4375 C 590.43506,743.37269 590.56612,742.10998 590.65625,740.5 C 590.69136,739.87151 590.72329,739.12809 590.75,738.40625 C 590.75078,738.38544 590.74923,738.36464 590.75,738.34375 C 590.75151,738.32271 590.7485,738.30228 590.75,738.28125 C 591.12472,733.0196 591.26408,727.94369 591,723.65625 L 595.28125,721.46875 C 595.28125,721.46875 591.38886,715.53705 587.71875,711.5625 C 584.85708,708.46346 577.55065,703.90734 572.65625,701.3125 C 570.91482,696.15013 567.7032,686.45316 566.9375,686.125 C 566.07468,685.75522 562.78323,688.67848 557.46875,696.46875 C 555.41687,693.23832 551.23534,686.61404 550.65625,685.6875 C 550.51992,685.46937 550.33354,685.35253 550.125,685.375 z M 590.71875,723.78125 C 590.70619,723.90825 590.66865,724.02958 590.65625,724.15625 C 590.65227,724.03996 590.66039,723.92986 590.65625,723.8125 L 590.71875,723.78125 z" transform="matrix(13.351443,0,0,13.351443,-6452.9119,-9106.3317)" id="path4940" style="opacity:0.5;fill:none;stroke:#000000;stroke-width:5;stroke-linecap:round;stroke-linejoin:round;stroke-miterlimit:4;stroke-dasharray:none;stroke-opacity:1" />
        <path d="M 1768.2712,2388.8135 A 851.18646,192.20338 0 1 1 65.898254,2388.8135 A 851.18646,192.20338 0 1 1 1768.2712,2388.8135 z" id="path3706-9" style="fill:url(#radialGradient2881);fill-opacity:1;stroke:none" />
        <path d="M 323.4767,2209.5152 C 309.26105,2320.1834 311.03796,2386.196 348.35399,2392.0206 C 385.67003,2397.8453 613.12014,2432.7931 637.99753,2382.3129 C 662.87482,2331.8327 643.32835,2223.106 643.32835,2223.106 L 323.4767,2209.5152 z" id="path2877-6" style="fill:#312c20;stroke:none" />
        <path d="M 478.80049,2236.6968 C 464.58484,2368.8836 466.36175,2447.7319 503.67778,2454.6891 C 540.99382,2461.6463 768.44393,2503.3895 793.32132,2443.0938 C 818.19861,2382.7981 798.65214,2252.9303 798.65214,2252.9303 L 478.80049,2236.6968 z" id="path2875-2" style="fill:#312c20;stroke:none" />
        <path d="M 918.57956,2242.5215 C 906.00985,2348.886 907.58103,2412.3314 940.57648,2417.9295 C 973.57193,2423.5277 1174.687,2457.1165 1196.684,2408.5994 C 1218.681,2360.0823 1201.3976,2255.5838 1201.3976,2255.5838 L 918.57956,2242.5215 L 918.57956,2242.5215 z" id="path2873-1" style="fill:#312c20;stroke:none" />
        <path d="M 1087.2666,2275.5278 C 1071.7342,2386.196 1073.6757,2452.2086 1114.4482,2458.0332 C 1155.2207,2463.8579 1403.7388,2498.8057 1430.9205,2448.3255 C 1458.1021,2397.8453 1436.7451,2289.1186 1436.7451,2289.1186 L 1087.2666,2275.5278 L 1087.2666,2275.5278 z" id="path2871-2" style="fill:#312c20;stroke:none" />
        <path d="M 902.81956,1625.1094 C 937.76741,1887.2183 922.23503,2093.0223 912.52729,2162.918 C 902.81956,2232.8137 875.63789,2316.3003 875.63789,2316.3003 L 947.47515,2267.7616 L 980.48146,2314.3587 L 1081.4419,2271.6447 L 1110.5651,2164.8596 L 1054.2603,1613.4601 L 902.81956,1625.1094 z" id="path2869-0" style="fill:#490a3d;stroke:none" />
        <path d="M 1432.862,541.72591 C 1444.5113,840.72421 1417.3296,891.20445 1417.3296,891.20445 C 1417.3296,891.20445 1494.9915,1190.2028 1510.5239,1298.9294 C 1526.0563,1407.6561 1432.862,1559.0968 1432.862,1749.3684 C 1432.862,1939.6401 1440.6282,2273.5862 1452.2775,2308.5341 C 1463.9268,2343.4819 1401.7972,2304.651 1401.7972,2304.651 L 1355.2001,2347.365 L 1316.3692,2293.0017 L 1258.1227,2335.7157 L 1195.9932,2281.3524 L 1137.7468,2343.4819 L 1102.7989,2293.0017 C 1102.7989,2293.0017 1048.4356,2327.9495 1036.7863,2351.2481 C 1025.137,2374.5467 1083.3835,2254.1707 1087.2666,2160.9765 C 1091.1497,2067.7822 1056.2018,1896.926 1040.6694,1799.8486 C 1025.137,1702.7713 1025.137,1656.1741 1025.137,1656.1741 C 1025.137,1656.1741 959.12443,1663.9403 924.17658,1667.8234 C 889.22873,1671.7065 865.93016,1663.9403 865.93016,1663.9403 C 865.93016,1663.9403 788.26826,1854.212 799.91754,2013.4189 C 811.56683,2172.6258 834.8654,2327.9495 834.8654,2327.9495 L 776.61897,2281.3524 L 761.08659,2324.0665 L 726.13874,2269.7031 L 675.65851,2331.8326 L 617.41208,2273.5862 L 586.34733,2335.7157 L 528.1009,2269.7031 L 450.439,2331.8326 C 450.439,2331.8326 444.61436,2319.2126 439.76049,2289.1186 C 428.06027,2300.85 426.47716,2300.306 411.60806,2312.4172 L 365.01092,2226.9891 L 318.41378,2300.7679 C 318.41378,2300.7679 295.11521,2269.7031 283.46593,2300.7679 C 271.81664,2331.8326 298.9983,2215.3398 271.81664,2036.7174 C 186.86351,1640.7662 144.68058,1285.1786 330.06306,918.38611 L 1258.1227,530.07662 L 1432.862,541.72591 L 1432.862,541.72591 z" id="path2863-7" style="fill:#a0002c;stroke:none" />
        <path d="M 1106.682,1258.1569 A 97.07737,223.27795 0 1 1 912.52731,1258.1569 A 97.07737,223.27795 0 1 1 1106.682,1258.1569 z" transform="matrix(1.5403225,-0.6542137,0.1338847,1.4009007,-1383.7939,235.70481)" id="path3697-31" style="opacity:0.5;fill:url(#radialGradient2883);fill-opacity:1;stroke:none" />
        <path d="M 330.0625,1423.1875 C 330.0625,1423.1875 417.3468,1848.489 371.28125,2238.5312 L 411.59375,2312.4062 C 426.46285,2300.295 428.04978,2300.8564 439.75,2289.125 C 444.60387,2319.219 450.4375,2331.8438 450.4375,2331.8438 L 467.84375,2317.9062 C 483.80557,2023.5654 330.0625,1423.1875 330.0625,1423.1875 z M 1114.4375,1625.125 L 1001.8438,1652.2812 C 1001.8438,1652.2812 1002.037,1654.6083 1002.375,1658.8438 C 1011.8685,1657.7333 1025.125,1656.1875 1025.125,1656.1875 C 1025.125,1656.1875 1025.125,1702.7665 1040.6562,1799.8438 C 1056.1886,1896.9211 1091.1644,2067.7744 1087.2812,2160.9688 C 1083.3981,2254.1629 1025.1319,2374.5486 1036.7812,2351.25 C 1048.4306,2327.9514 1102.8125,2293 1102.8125,2293 L 1137.75,2343.4688 L 1178.3125,2300.1875 C 1185.1475,2113.0001 1183.3043,1808.7698 1114.4375,1625.125 L 1114.4375,1625.125 z M 803.8125,1656.1875 C 780.51393,1656.1875 730.0081,1916.3556 726.125,2075.5625 C 724.31034,2149.9636 734.38851,2232.819 745.625,2300 L 761.09375,2324.0625 L 776.625,2281.3438 L 834.875,2327.9375 C 834.875,2327.9375 811.55554,2172.6132 799.90625,2013.4062 C 788.25697,1854.1994 865.9375,1663.9375 865.9375,1663.9375 C 865.9375,1663.9375 880.59521,1668.7835 904.0625,1668.875 C 904.43986,1666.0504 904.75,1663.9375 904.75,1663.9375 C 904.75,1663.9375 827.11107,1656.1875 803.8125,1656.1875 L 803.8125,1656.1875 z" id="path3663-1" style="opacity:0.5;fill:#490a3d;stroke:none" />
        <path d="M 1290.75,532.25 C 928.40695,670.35833 356.83455,904.25731 372.78125,999.9375 C 396.07982,1139.7289 630.52797,1315.2649 776.625,1376.5938 C 944.53389,1447.0789 1386.237,1496.2241 1433.2188,780.5625 C 1436.1568,727.97416 1437.1604,651.71013 1432.875,541.71875 L 1290.75,532.25 z" id="path3658-9" style="opacity:0.5;fill:#490a3d;stroke:none" />
        <path d="M 797.976,221.37058 C 869.81325,52.455954 889.22873,33.04048 898.93646,48.572859 C 908.6442,64.105239 1013.4878,229.13677 1013.4878,229.13677 L 797.976,221.37058 z" id="path2853-0" style="fill:#490a3d;stroke:none" />
        <path d="M 1129.9806,231.07832 C 799.91754,180.59809 796.03445,200.01356 772.73588,219.42903 C 749.43731,238.84451 706.72327,304.85712 644.59375,351.45426 C 582.46423,398.0514 524.21781,409.70068 419.37425,576.67376 C 314.53068,743.64684 221.33641,825.19183 295.11521,933.91849 C 368.89401,1042.6451 423.25734,1030.9959 446.55591,1034.879 C 469.85448,1038.7621 508.68542,1128.0732 578.58113,1093.1254 C 648.47684,1058.1775 850.39778,902.85373 850.39778,902.85373 C 850.39778,902.85373 1009.6047,980.51563 1118.3313,883.43826 C 1227.058,786.36089 1188.227,654.33566 1188.227,654.33566 L 1254.2396,650.45257 L 1262.0058,580.55686 L 1304.7199,623.2709 L 1494.9915,526.19353 C 1494.9915,526.19353 1443.0324,447.23432 1394.0311,394.1683 C 1335.7846,331.09021 1137.7468,221.17747 1129.9806,231.07832 L 1129.9806,231.07832 z" id="path2839-5" style="fill:#a0002c;stroke:none" />
        <path d="M 1106.682,1258.1569 A 97.07737,223.27795 0 1 1 912.52731,1258.1569 A 97.07737,223.27795 0 1 1 1106.682,1258.1569 z" transform="matrix(1.5517714,0.6265735,-0.8959156,1.0852572,203.17895,-1464.0555)" id="path3756-6" style="opacity:0.5;fill:url(#radialGradient2885);fill-opacity:1;stroke:none" />
        <path d="M 471.79602,1046.5283 C 491.21149,1025.1712 580.52269,964.98325 580.52269,964.98325 L 452.38055,1036.8205 L 471.79602,1046.5283 L 471.79602,1046.5283 z" id="path2841-77" style="fill:#490a3d;stroke:none" />
        <path d="M 357.24473,836.84112 C 469.85448,747.52994 446.55591,871.78897 446.55591,871.78897 C 440.65019,836.27501 414.86096,820.64456 357.24473,836.84112 z" id="path2843-4" style="fill:#490a3d;stroke:none" />
        <path d="M 924.17657,427.17462 A 62.129517,52.42178 0 1 1 799.91754,427.17462 A 62.129517,52.42178 0 1 1 924.17657,427.17462 z" transform="matrix(-0.5778166,0.8161666,-0.8161666,-0.5778166,1708.7978,-29.570842)" id="path3651-06" style="fill:#490a3d;fill-opacity:1;stroke:none" />
        <path d="M 757.2035,483.47949 C 794.15385,331.34228 955.90446,364.14607 959.12443,378.63592 C 884.77884,371.60822 823.23678,368.74767 776.61898,469.88866 C 809.87076,479.9981 881.72698,476.74322 955.24134,432.99926 C 926.97373,469.52793 896.87888,500.14504 757.2035,483.47949 L 757.2035,483.47949 z" id="path2845-47" style="fill:#1a1a21;stroke:none" />
        <path d="M 1089.2081,399.99295 C 1062.0264,526.19353 1128.0391,654.33566 1128.0391,654.33566 L 1215.4087,652.39411 L 1135.8052,640.74483 C 1107.7373,573.02975 1086.4431,498.54099 1089.2081,399.99295 z" id="path2847-4" style="fill:#490a3d;stroke:none" />
        <path d="M 1240.6488,405.81759 C 1240.6488,500.95341 1306.6614,609.68007 1306.6614,609.68007 L 1386.2649,578.61531 C 1386.2649,578.61531 1311.7128,628.41794 1304.7199,623.2709 C 1241.7223,576.90214 1236.1857,404.32597 1240.6488,405.81759 z" id="path2849-8" style="fill:#490a3d;stroke:none" />
        <path d="M 776.0099,814.5419 C 814.84085,903.85308 886.6781,909.67772 886.6781,909.67772 C 833.46496,890.20859 810.62718,847.95793 776.0099,814.5419 z" id="path2851-5" style="fill:#490a3d;stroke:none" />
        <path d="M 949.4167,254.37689 C 1044.5525,102.93619 1102.7989,48.572859 1116.3898,54.397502 C 1129.9806,60.222144 1201.8179,287.38319 1207.6425,299.03248 C 1213.4671,310.68176 1122.2144,333.98033 1122.2144,333.98033 C 1122.2144,333.98033 1159.1038,277.67546 1137.7468,271.85081 C 1116.3898,266.02617 951.35824,250.49379 949.4167,254.37689 L 949.4167,254.37689 z" id="path2855-8" style="fill:#a0002c;stroke:none" />
        <path d="M 1110.5651,58.280596 C 1139.4249,161.18261 1138.2817,330.09724 1122.2144,330.09724 L 1165.8707,311.34799 C 1172.3867,163.79609 1127.4646,140.26893 1110.5651,58.280596 L 1110.5651,58.280596 z" id="path2857-2" style="fill:#490a3d;stroke:none" />
        <path d="M 1436.0829,533.11221 C 1458.9634,780.60523 1363.5605,1263.0534 1363.5605,1263.0534 L 1334.39,1187.4011 C 1411.1977,970.91427 1410.8031,775.3764 1436.0829,533.11221 L 1436.0829,533.11221 z" id="path2859-6" style="fill:#490a3d;stroke:none" />
        <path d="M 609.64589,1131.9563 C 671.77541,1236.7999 698.95708,1283.397 698.95708,1283.397 L 644.59375,1139.7225 L 609.64589,1131.9563 L 609.64589,1131.9563 z" id="path2861-0" style="fill:#490a3d;stroke:none" />
        <path d="M 766.91124,1646.4664 C 977.45127,1708.3795 1132.129,1628.4526 1139.6883,1628.9925 C 980.87525,1656.8061 869.40264,1654.4939 766.91124,1646.4664 L 766.91124,1646.4664 z" id="path2865-6" style="fill:#490a3d;stroke:none" />
        <path d="M 314.53068,1366.8836 C 467.91293,2085.2561 452.38055,2122.1455 456.26365,2201.749 C 460.14674,2281.3524 444.61436,2322.1249 444.61436,2322.1249 L 485.38686,2298.8263 C 473.563,1995.9276 409.0487,1734.7122 314.53068,1366.8836 z" id="path2867-6" style="fill:#490a3d;stroke:none" />
        <path d="M 1181.5625,652.28125 C 1172.9112,652.72447 1166.9375,663.40731 1166.9375,691.9375 C 1166.9375,796.27648 1073.5841,859.41314 1026.9062,884.125 C 980.22824,908.83687 864.92638,900.59534 837.46875,881.375 C 810.01112,862.15466 788.04026,919.84058 733.125,958.28125 C 678.20975,996.72193 593.09481,1103.7945 472.28125,1051.625 C 472.28125,1050.9242 472.18725,1052.4998 472.03125,1055.6562 C 495.85156,1081.051 529.55427,1117.6447 578.59375,1093.125 C 648.48946,1058.1771 850.40625,902.84375 850.40625,902.84375 C 850.40625,902.84375 1009.6171,980.51487 1118.3438,883.4375 C 1227.0704,786.36013 1188.2188,654.34375 1188.2188,654.34375 L 1189.5938,654.25005 C 1186.7481,652.87709 1184.0417,652.15429 1181.5625,652.2813 L 1181.5625,652.28125 z" id="path3701-4" style="fill:#490a3d;stroke:none" />
        <path d="M 825.5625,238.84375 C 820.49088,238.74865 815.14628,239.95811 809.625,242.71875 C 759.14477,267.95887 718.3685,326.21941 646.53125,370.875 C 574.69399,415.53059 394.13131,652.3797 361.125,695.09375 C 343.80116,717.51284 325.9623,730.28594 310.9375,740.1875 C 294.30767,767.31646 281.56323,792.24404 274.59375,816.34375 C 281.37465,871.4233 327.4843,868.68756 343.65625,854.3125 C 361.13017,838.78012 366.95322,792.1956 419.375,788.3125 C 471.79678,784.42941 460.15465,671.82333 535.875,576.6875 C 611.59535,481.55168 753.319,399.9872 825.15625,361.15625 C 889.13631,326.57244 866.86001,239.61843 825.5625,238.84375 L 825.5625,238.84375 z" id="path3716-6" style="fill:#e61a55;stroke:none" />
      </g>
    </g>
    
</svg>
